<svg xmlns="http://www.w3.org/2000/svg" viewBox="0 0 512 512">
  <defs>
    <!-- Apple-style gradient - Clean blue -->
    <linearGradient id="bg" x1="0%" y1="0%" x2="100%" y2="100%">
      <stop offset="0%" stop-color="#007AFF"/>
      <stop offset="100%" stop-color="#0055D4"/>
    </linearGradient>
    
    <!-- Clock hand gradient -->
    <linearGradient id="handGrad" x1="0%" y1="0%" x2="0%" y2="100%">
      <stop offset="0%" stop-color="#1d1d1f"/>
      <stop offset="100%" stop-color="#3d3d3f"/>
    </linearGradient>
  </defs>
  
  <!-- Background - iOS App Icon style rounded rect -->
  <rect x="0" y="0" width="512" height="512" rx="114" fill="url(#bg)"/>
  
  <!-- Subtle highlight on top -->
  <rect x="0" y="0" width="512" height="256" rx="114" fill="white" opacity="0.1"/>
  
  <!-- Clock face - Clean white circle -->
  <circle cx="256" cy="256" r="160" fill="white"/>
  
  <!-- Subtle shadow ring inside -->
  <circle cx="256" cy="256" r="155" fill="none" stroke="#e5e5e7" stroke-width="2"/>
  
  <!-- Hour markers - minimal dots -->
  <g fill="#1d1d1f">
    <circle cx="256" cy="116" r="8"/>
    <circle cx="396" cy="256" r="8"/>
    <circle cx="256" cy="396" r="8"/>
    <circle cx="116" cy="256" r="8"/>
  </g>
  
  <!-- Secondary hour markers - smaller dots -->
  <g fill="#c7c7cc">
    <circle cx="326" cy="136" r="5"/>
    <circle cx="376" cy="186" r="5"/>
    <circle cx="376" cy="326" r="5"/>
    <circle cx="326" cy="376" r="5"/>
    <circle cx="186" cy="376" r="5"/>
    <circle cx="136" cy="326" r="5"/>
    <circle cx="136" cy="186" r="5"/>
    <circle cx="186" cy="136" r="5"/>
  </g>
  
  <!-- Hour hand - 10:10 position -->
  <line x1="256" y1="256" x2="200" y2="175" stroke="url(#handGrad)" stroke-width="14" stroke-linecap="round"/>
  
  <!-- Minute hand -->
  <line x1="256" y1="256" x2="312" y2="175" stroke="url(#handGrad)" stroke-width="10" stroke-linecap="round"/>
  
  <!-- Center cap - Apple Watch style -->
  <circle cx="256" cy="256" r="16" fill="#007AFF"/>
  <circle cx="256" cy="256" r="10" fill="white"/>
  <circle cx="256" cy="256" r="5" fill="#007AFF"/>
</svg>
